<svg width="24" height="26" viewBox="0 0 24 26" fill="none" xmlns="http://www.w3.org/2000/svg">
<path d="M11.5209 0.558875C11.416 0.614023 11.2558 0.763158 11.162 0.890284L10.9963 1.12771V2.18226C10.9963 3.34737 11.0183 3.4468 11.3498 3.72824C11.6423 3.9711 12.2497 4.02651 12.5977 3.83879C12.7689 3.74481 12.9457 3.53509 13.0394 3.31423C13.1003 3.15397 13.1223 2.89453 13.1223 2.1934C13.1223 1.49226 13.1003 1.23257 13.0394 1.07256C12.9346 0.835137 12.7634 0.636291 12.5591 0.531431C12.3383 0.415438 11.7529 0.432007 11.5209 0.558875Z" fill="#FFDAA6"/>
<path d="M6.26962 1.91167C5.7782 2.08825 5.5022 2.44737 5.5022 2.92765C5.5022 3.16507 5.55735 3.29764 5.98818 4.04849C6.56789 5.05333 6.75016 5.22473 7.2307 5.22473C7.89896 5.21929 8.4621 4.61188 8.3461 4.02648C8.29096 3.76135 7.43499 2.2871 7.2307 2.11052C7.065 1.96139 6.73929 1.83452 6.55157 1.83452C6.50704 1.83995 6.38017 1.8731 6.26962 1.91167Z" fill="#FFDAA6"/>
<path d="M17.0373 2.01653C16.833 2.12139 16.739 2.23739 16.4464 2.72337C15.8445 3.72821 15.701 4.05418 15.7396 4.33019C15.8168 4.84931 16.2145 5.20816 16.7613 5.24674C17.0098 5.26331 17.1313 5.2413 17.3024 5.15301C17.573 5.02045 17.6172 4.95986 18.1749 3.97133C18.5946 3.22592 18.6001 3.20935 18.5781 2.88907C18.5504 2.47481 18.3572 2.20994 17.9595 2.02223C17.6059 1.85653 17.3464 1.85653 17.0373 2.01653Z" fill="#FFDAA6"/>
<path d="M11.1123 5.42904C9.15206 5.69961 7.43468 6.73215 6.253 8.34467C5.91072 8.81408 5.37503 9.91291 5.22589 10.4486C5.06019 11.056 4.94989 11.84 4.94989 12.4531C4.94989 14.9545 6.31385 17.3178 8.47836 18.5492L8.89806 18.7867H12.018H15.1379L15.5244 18.5658C16.1264 18.2124 16.6013 17.837 17.1036 17.3124C18.8044 15.5453 19.4615 13.0385 18.8429 10.6586C18.1638 8.04666 16.049 6.05328 13.3708 5.50671C12.8351 5.3959 11.6314 5.35732 11.1123 5.42904ZM9.57176 12.0497C9.65461 12.0829 10.2177 12.602 10.8143 13.1983L11.9077 14.286L13.0228 13.1763C13.7682 12.4363 14.1991 12.0497 14.3039 12.0277C14.7899 11.9117 15.2759 12.4585 15.1156 12.9443C15.077 13.066 14.5468 13.6345 13.4811 14.7002L11.9074 16.2739L10.3337 14.7002C9.23491 13.6014 8.74349 13.0714 8.69922 12.9388C8.58322 12.5854 8.80977 12.1603 9.17976 12.0497C9.39492 11.9891 9.39492 11.9891 9.57176 12.0497Z" fill="#FFDAA6"/>
<path d="M2.10628 5.94272C1.73086 6.10273 1.44372 6.61098 1.4823 7.03612C1.52657 7.49439 1.69202 7.6601 2.58657 8.17352C3.51425 8.70352 3.69083 8.7698 4.0168 8.68151C4.35365 8.58753 4.49709 8.47723 4.67936 8.16239C4.87251 7.82011 4.88908 7.49413 4.72907 7.15755C4.59651 6.89242 4.59107 6.88698 3.5694 6.29614C2.90684 5.90958 2.79629 5.86557 2.54799 5.86557C2.39885 5.871 2.19457 5.90415 2.10628 5.94272Z" fill="#FFDAA6"/>
<path d="M21.2392 5.95929C21.1949 5.97586 20.7864 6.20215 20.3392 6.46184C19.7264 6.81526 19.4832 6.98096 19.3895 7.1301C19.1135 7.55523 19.1632 8.00264 19.5275 8.42208C19.9915 8.94664 20.3226 8.91893 21.4658 8.25637C22.1835 7.83667 22.316 7.73725 22.4431 7.52753C22.8463 6.8427 22.3163 5.90958 21.532 5.92615C21.416 5.92615 21.2835 5.94272 21.2392 5.95929Z" fill="#FFDAA6"/>
<path d="M0.615183 11.4092C-0.119096 11.7294 -0.218519 12.7951 0.438604 13.2865C0.582042 13.3917 0.681465 13.4028 1.692 13.4191C2.70798 13.4357 2.80197 13.4302 3.01169 13.3254C3.55825 13.0437 3.70195 12.1326 3.27681 11.6689C3.01169 11.3817 2.79627 11.332 1.74715 11.3374C1.07372 11.3374 0.731176 11.3597 0.615183 11.4092Z" fill="#FFDAA6"/>
<path d="M21.0295 11.5363C20.7921 11.6523 20.6043 11.9006 20.5215 12.21C20.4055 12.6462 20.5821 13.1265 20.9466 13.3751C21.1398 13.5077 21.1895 13.5131 22.1172 13.5297C23.2657 13.5517 23.3872 13.5351 23.6466 13.3088C23.9226 13.0659 24 12.8837 24 12.4805C24 12.0443 23.8454 11.7463 23.5306 11.5694C23.3209 11.4534 23.2489 11.4426 22.2606 11.4426C21.3995 11.4423 21.1786 11.4589 21.0295 11.5363Z" fill="#FFDAA6"/>
<path d="M3.48651 16.1193C3.42566 16.1359 3.00622 16.3622 2.55338 16.6273C1.58142 17.1904 1.44342 17.3396 1.44342 17.8475C1.44342 18.1015 1.47656 18.2121 1.60913 18.433C1.84111 18.8029 2.12255 18.9629 2.52024 18.9355C2.78537 18.9189 2.92881 18.8581 3.67422 18.4275C4.64618 17.8587 4.78418 17.7041 4.78418 17.1907C4.78418 16.4784 4.15476 15.9539 3.48651 16.1193Z" fill="#FFDAA6"/>
<path d="M19.9692 16.2022C19.2127 16.4176 18.9035 17.4721 19.4501 17.9692C19.5109 18.019 19.9029 18.2675 20.3281 18.5158C20.9632 18.8912 21.1509 18.9741 21.3883 18.9961C21.7526 19.0292 21.9072 18.9907 22.1283 18.803C22.3326 18.6264 22.5646 18.1678 22.5646 17.9304C22.5646 17.6984 22.388 17.345 22.1946 17.1796C21.924 16.9476 20.5601 16.2076 20.3558 16.1745C20.2509 16.1581 20.0743 16.169 19.9692 16.2022Z" fill="#FFDAA6"/>
<path d="M8.48383 20.9123V21.6026H12.0177H15.5516V20.9123V20.222H12.018H8.48383V20.9123Z" fill="#FFDAA6"/>
<path d="M8.48383 23.3308C8.48383 23.7394 8.6661 24.0651 9.00295 24.2751C9.24581 24.4297 9.31209 24.4408 9.9195 24.4628L10.5655 24.4848L10.5986 24.7885C10.6429 25.1862 10.7863 25.4565 11.0735 25.661C11.3055 25.8268 11.322 25.8268 12.0123 25.8268C12.664 25.8268 12.7303 25.8156 12.9123 25.6942C13.2271 25.4788 13.3651 25.2305 13.3871 24.8273L13.4091 24.4739H13.9448C14.6462 24.4739 14.9828 24.3745 15.2368 24.0928C15.4465 23.8608 15.5516 23.5794 15.5516 23.2425V23.0383H12.018H8.48383V23.3308Z" fill="#FFDAA6"/>
</svg>
