<svg width="16" height="19" viewBox="0 0 16 19" fill="none" xmlns="http://www.w3.org/2000/svg">
<path d="M2.02007 16.1808H5.01007V10.2008H10.9901V16.1808H13.9801V7.21085L8.00007 2.72585L2.02007 7.21085V16.1808ZM2.02007 18.1742C1.4719 18.1742 1.00264 17.979 0.612275 17.5886C0.221914 17.1983 0.0267334 16.729 0.0267334 16.1808V7.21085C0.0267334 6.89524 0.0973306 6.59624 0.238525 6.31385C0.37972 6.03146 0.5749 5.7989 0.824067 5.61618L6.80407 1.13118C6.98679 0.998291 7.17782 0.898625 7.37715 0.83218C7.57648 0.765736 7.78412 0.732513 8.00007 0.732513C8.21601 0.732513 8.42365 0.765736 8.62298 0.83218C8.82232 0.898625 9.01334 0.998291 9.19607 1.13118L15.1761 5.61618C15.4252 5.7989 15.6204 6.03146 15.7616 6.31385C15.9028 6.59624 15.9734 6.89524 15.9734 7.21085V16.1808C15.9734 16.729 15.7782 17.1983 15.3879 17.5886C14.9975 17.979 14.5282 18.1742 13.9801 18.1742H8.99673V12.1942H7.0034V18.1742H2.02007Z" fill="#FFDAA6"/>
</svg>
