<svg width="25" height="25" viewBox="0 0 25 25" fill="none" xmlns="http://www.w3.org/2000/svg">
<path d="M7.12939 16.7158C7.91273 16.7158 8.67523 16.8033 9.41689 16.9783C10.1586 17.1533 10.8961 17.4158 11.6294 17.7658V7.91576C10.9461 7.51576 10.2211 7.21576 9.45439 7.01576C8.68773 6.81576 7.91273 6.71576 7.12939 6.71576C6.52939 6.71576 5.93356 6.77409 5.34189 6.89076C4.75023 7.00743 4.17939 7.18243 3.62939 7.41576V17.3158C4.21273 17.1158 4.79189 16.9658 5.36689 16.8658C5.94189 16.7658 6.52939 16.7158 7.12939 16.7158ZM13.6294 17.7658C14.3627 17.4158 15.1002 17.1533 15.8419 16.9783C16.5836 16.8033 17.3461 16.7158 18.1294 16.7158C18.7294 16.7158 19.3169 16.7658 19.8919 16.8658C20.4669 16.9658 21.0461 17.1158 21.6294 17.3158V7.41576C21.0794 7.18243 20.5086 7.00743 19.9169 6.89076C19.3252 6.77409 18.7294 6.71576 18.1294 6.71576C17.3461 6.71576 16.5711 6.81576 15.8044 7.01576C15.0377 7.21576 14.3127 7.51576 13.6294 7.91576V17.7658ZM12.6294 20.1908C12.3961 20.1908 12.1752 20.1616 11.9669 20.1033C11.7586 20.0449 11.5627 19.9658 11.3794 19.8658C10.7294 19.4824 10.0461 19.1949 9.32939 19.0033C8.61273 18.8116 7.87939 18.7158 7.12939 18.7158C6.42939 18.7158 5.74189 18.8074 5.06689 18.9908C4.39189 19.1741 3.74606 19.4324 3.12939 19.7658C2.77939 19.9491 2.44189 19.9408 2.11689 19.7408C1.79189 19.5408 1.62939 19.2491 1.62939 18.8658V6.81576C1.62939 6.63243 1.67523 6.45743 1.76689 6.29076C1.85856 6.12409 1.99606 5.99909 2.17939 5.91576C2.94606 5.51576 3.74606 5.21576 4.57939 5.01576C5.41273 4.81576 6.26273 4.71576 7.12939 4.71576C8.09606 4.71576 9.04189 4.84076 9.9669 5.09076C10.8919 5.34076 11.7794 5.71576 12.6294 6.21576C13.4794 5.71576 14.3669 5.34076 15.2919 5.09076C16.2169 4.84076 17.1627 4.71576 18.1294 4.71576C18.9961 4.71576 19.8461 4.81576 20.6794 5.01576C21.5127 5.21576 22.3127 5.51576 23.0794 5.91576C23.2627 5.99909 23.4002 6.12409 23.4919 6.29076C23.5836 6.45743 23.6294 6.63243 23.6294 6.81576V18.8658C23.6294 19.2491 23.4669 19.5408 23.1419 19.7408C22.8169 19.9408 22.4794 19.9491 22.1294 19.7658C21.5127 19.4324 20.8669 19.1741 20.1919 18.9908C19.5169 18.8074 18.8294 18.7158 18.1294 18.7158C17.3794 18.7158 16.6461 18.8116 15.9294 19.0033C15.2127 19.1949 14.5294 19.4824 13.8794 19.8658C13.6961 19.9658 13.5002 20.0449 13.2919 20.1033C13.0836 20.1616 12.8627 20.1908 12.6294 20.1908Z" fill="#FFDAA6"/>
</svg>
