<svg width="73" height="72" viewBox="0 0 73 72" fill="none" xmlns="http://www.w3.org/2000/svg">
<path d="M36.5068 50.3482C43.7765 50.3482 49.6715 44.4555 49.6715 37.1835V13.2457C49.6715 5.976 43.7765 0.0832481 36.5068 0.0832481C29.237 0.0832481 23.342 5.976 23.342 13.2457V37.1835C23.342 44.4532 29.237 50.3482 36.5068 50.3482ZM25.736 13.248C25.736 7.31025 30.5668 2.4795 36.5068 2.4795C42.4468 2.4795 47.2775 7.31025 47.2775 13.248V37.1857C47.2775 43.1257 42.4468 47.9565 36.5068 47.9565C30.5668 47.9565 25.736 43.1257 25.736 37.1857V13.248Z" fill="#CA4735"/>
<path d="M54.4505 25.2157V37.1835C54.4505 47.0812 46.3978 55.134 36.5 55.134C26.6022 55.134 18.5495 47.0812 18.5495 37.1835V25.2157H16.1555V37.1835C16.1555 48.051 24.728 56.9295 35.4627 57.474H35.3097V69.5205H24.5322V71.9145H48.4655V69.5205H37.7015V57.474H37.5373C48.272 56.9272 56.8445 48.0487 56.8445 37.1835V25.2157H54.4505Z" fill="#CA4735"/>
</svg>
