<svg width="73" height="72" viewBox="0 0 73 72" fill="none" xmlns="http://www.w3.org/2000/svg">
<path d="M32.27 27.51L18.86 14.1C17.69 12.93 15.8 12.93 14.63 14.1C13.46 15.27 13.46 17.16 14.63 18.33L28.01 31.71L32.27 27.51ZM46.55 14.55L50.12 18.12L14.6 53.64C13.43 54.81 13.43 56.7 14.6 57.87C15.77 59.04 17.66 59.04 18.83 57.87L54.38 22.38L57.95 25.95C58.88 26.88 60.5 26.22 60.5 24.87V13.5C60.5 12.66 59.84 12 59 12H47.63C46.28 12 45.62 13.62 46.55 14.55V14.55ZM44.99 40.23L40.76 44.46L50.15 53.85L46.55 57.45C45.62 58.38 46.28 60 47.63 60H59C59.84 60 60.5 59.34 60.5 58.5V47.13C60.5 45.78 58.88 45.12 57.95 46.08L54.38 49.65L44.99 40.23V40.23Z" fill="#CA4735"/>
</svg>
